<svg xmlns="http://www.w3.org/2000/svg" width="78.573" height="44.572" viewBox="0 0 78.573 44.572"><g transform="translate(-214.804 -201.54)"><path d="M264.823,212.1v-5.744h18.788V212.1h-6.356v34.016h-6.1V212.1Z" fill="#1b1918" fill-rule="evenodd"/><path d="M214.8,204.072l5.211,3.908a17.311,17.311,0,0,1,5.245-.809,17.814,17.814,0,0,1,9.848,32.465l1.809,5.5a23.457,23.457,0,0,0-11.657-43.594,22.744,22.744,0,0,0-10.456,2.532Z" fill="#1b1918" fill-rule="evenodd"/><path d="M254.574,206.457h6.1v39.655h-6.1Z" fill="#1b1918" fill-rule="evenodd"/><path d="M245.221,228.466v-5.75h15.457v5.75Z" fill="#1b1918" fill-rule="evenodd"/><path d="M287.463,210.911v-4.522h5.915v4.522Zm0,35.2V213.1h5.915v33.015Z" fill="#1b1918" fill-rule="evenodd"/></g></svg>